# xmcd
#
# Track frame offsets: 
#        150
#        25195
#        48125
#        69650
#        84967
#        115020
#        132742
#        157267
#        174480
#        192080
#        217117
#        233630
#
# Disc length: 3415 seconds
#
# Revision: 2
# Processed by: cddbd v1.5.2PL0 Copyright (c) Steve Scherf et al.
# Submitted via: ExactAudioCopyFreeDBPlugin 1.0
#
DISCID=a20d550c
DTITLE=Danny Gatton - Cruisin' Deuces
DYEAR=1993
DGENRE=Blues
TTITLE0=Funhouse
TTITLE1=Sun Medley (Mystery Train, My Baby Left Me, That's All Right)
TTITLE2=Harlem Nocturne
TTITLE3=Thirteen Women
TTITLE4=Sky King
TTITLE5=Beat Of The Night
TTITLE6=So Good
TTITLE7=It Doesn't Matter Anymore
TTITLE8=Puddin' And Pie
TTITLE9=Tragedy
TTITLE10=Cruisin' Deuces
TTITLE11=Satisfied Mind
EXTD=YEAR: 1993 ID3G: 17
EXTT0=
EXTT1=
EXTT2=
EXTT3=
EXTT4=
EXTT5=
EXTT6=
EXTT7=
EXTT8=
EXTT9=
EXTT10=
EXTT11=
PLAYORDER=
